<?xml version="1.0" encoding="UTF-8" standalone="no"?>
<svg
   xmlns="http://www.w3.org/2000/svg"
   id="gitlab"
   viewBox="0 0 32 32"
   version="1.1"
   width="32"
   height="32">
  <defs
     id="defs907">
    <style
       id="style905">.cls-1{fill:#fc6d26;}.cls-2{fill:#e24329;}.cls-3{fill:#fca326;}</style>
  </defs>
  <title
     id="title909">gitlab-icon-rgb</title>
  <g
     id="g2150"
     transform="matrix(0.09479293,0,0,0.09325008,8.3829326e-7,-29.18005)"
     style="stroke-width:10.63622284">
    <g
       transform="translate(-124.20869,204.99999)"
       id="g44"
       style="stroke-width:10.63622284">
      <path
         style="fill:#fc6d26;stroke-width:10.63622284"
         d="M 461.17,301.83 442.26,243.71 404.84,128.43 a 6.47,6.47 0 0 0 -12.27,0 L 355.15,243.64 H 230.82 L 193.4,128.43 a 6.46,6.46 0 0 0 -12.26,0 l -37.36,115.21 -18.91,58.19 a 12.88,12.88 0 0 0 4.66,14.39 L 293,435 456.44,316.22 a 12.9,12.9 0 0 0 4.73,-14.39"
         class="cls-1"
         id="path46" />
    </g>
    <g
       transform="translate(-124.20869,204.99999)"
       id="g48"
       style="stroke-width:10.63622284">
      <path
         style="fill:#e24329;stroke-width:10.63622284"
         d="m 293,434.91 v 0 L 355.16,243.63 H 230.87 Z"
         class="cls-2"
         id="path50" />
    </g>
    <g
       transform="translate(-124.20869,204.99999)"
       id="g56"
       style="stroke-width:10.63622284">
      <path
         style="fill:#fc6d26;stroke-width:10.63622284"
         d="M 293,434.91 230.82,243.63 h -87 z"
         class="cls-1"
         id="path58" />
    </g>
    <g
       transform="translate(-124.20869,204.99999)"
       id="g64"
       style="stroke-width:10.63622284">
      <path
         style="fill:#fca326;stroke-width:10.63622284"
         d="m 143.75,243.69 v 0 l -18.91,58.12 a 12.88,12.88 0 0 0 4.66,14.39 L 293,435 Z"
         class="cls-3"
         id="path66" />
    </g>
    <g
       transform="translate(-124.20869,204.99999)"
       id="g72"
       style="stroke-width:10.63622284">
      <path
         style="fill:#e24329;stroke-width:10.63622284"
         d="m 143.78,243.69 h 87.11 L 193.4,128.49 a 6.47,6.47 0 0 0 -12.27,0 z"
         class="cls-2"
         id="path74" />
    </g>
    <g
       transform="translate(-124.20869,204.99999)"
       id="g76"
       style="stroke-width:10.63622284">
      <path
         style="fill:#fc6d26;stroke-width:10.63622284"
         d="M 293,434.91 355.16,243.63 H 442.3 Z"
         class="cls-1"
         id="path78" />
    </g>
    <g
       transform="translate(-124.20869,204.99999)"
       id="g80"
       style="stroke-width:10.63622284">
      <path
         style="fill:#fca326;stroke-width:10.63622284"
         d="m 442.24,243.69 v 0 l 18.91,58.12 a 12.85,12.85 0 0 1 -4.66,14.39 L 293,434.91 442.2,243.69 Z"
         class="cls-3"
         id="path82" />
    </g>
    <g
       transform="translate(-124.20869,204.99999)"
       id="g84"
       style="stroke-width:10.63622284">
      <path
         style="fill:#e24329;stroke-width:10.63622284"
         d="m 442.28,243.69 h -87.1 l 37.42,-115.2 a 6.46,6.46 0 0 1 12.26,0 z"
         class="cls-2"
         id="path86" />
    </g>
  </g>
</svg>
