<?xml version="1.0" encoding="UTF-8" standalone="no"?>
<svg
   xmlns="http://www.w3.org/2000/svg"
   viewBox="0 0 32 32"
   id="svg8"
   version="1.1"
   width="32"
   height="32">
  <g
     id="layer1"
     transform="matrix(0.25716531,0,0,0.2573295,-10.381139,-19.873837)">
    <path
       style="fill:#ffcc00;fill-opacity:1;stroke-width:1"
       d="m 83.346169,201.11635 c -0.31995,-0.25143 -0.7069,-0.79231 -0.8599,-1.20197 -0.19091,-0.51119 -0.27817,-16.5109 -0.27817,-51.00693 0,-55.041842 -0.10127,-51.620772 1.55352,-52.476502 1.15998,-0.59984 12.11625,-0.61065 13.27181,-0.0131 1.69698,0.87754 1.57884,-3.04181 1.57884,52.378382 0,54.12368 0.0571,51.78585 -1.28312,52.50313 -0.34157,0.1828 -2.85389,0.28376 -6.96771,0.28 -5.68916,-0.005 -6.50085,-0.0588 -7.01527,-0.46302 z m 24.179141,-0.27318 -0.71096,-0.74208 v -51.18967 c 0,-56.038962 -0.11998,-51.923072 1.5336,-52.608002 0.53466,-0.22147 2.58171,-0.29131 6.88421,-0.2349 l 6.12329,0.0803 0.7331,0.7336 0.73309,0.7336 0.0694,50.860152 c 0.0517,37.86734 -0.008,51.04871 -0.2349,51.59828 -0.60492,1.46735 -0.83262,1.51082 -7.91366,1.51082 h -6.50621 z m -48.402108,-45.5812 c -1.309927,-0.76296 -1.256765,0.88139 -1.256765,-38.87255 0,-39.943202 -0.06021,-38.153522 1.308262,-38.885902 0.309278,-0.16552 3.045481,-0.27243 6.972638,-0.27243 h 6.463607 l 0.684831,0.68483 c 0.422291,0.42229 0.744948,1.10696 0.841642,1.78594 0.08625,0.60561 0.121733,17.55369 0.07885,37.662412 l -0.07796,36.56131 -0.777105,0.81109 -0.777105,0.81108 -6.498937,-0.008 c -3.920056,-0.005 -6.682672,-0.11506 -6.961963,-0.27773 z m 72.806218,-0.48762 -0.7734,-0.77339 V 125.84112 97.681278 l 0.63891,-0.6894 c 0.35139,-0.37916 0.92126,-0.76026 1.26636,-0.84687 0.3451,-0.0866 3.34179,-0.1212 6.65932,-0.0768 l 6.03186,0.0806 0.7751,0.86803 0.77511,0.86803 -0.0697,28.192942 -0.0697,28.19293 -0.74236,0.63851 c -0.74109,0.63742 -0.75348,0.63851 -7.23025,0.63851 h -6.48789 z"
       id="path7270" />
  </g>
</svg>
